<?xml version="1.0" standalone="no"?>
<!DOCTYPE svg PUBLIC "-//W3C//DTD SVG 1.1//EN" "http://www.w3.org/Graphics/SVG/1.1/DTD/svg11.dtd" >
<svg xmlns="http://www.w3.org/2000/svg">
<metadata></metadata>
<defs>
<font id="PTSansCaptionBold" horiz-adv-x="1210" >
<font-face units-per-em="2048" ascent="1638" descent="-410" />
<missing-glyph horiz-adv-x="565" />
<glyph unicode="&#xfb01;" horiz-adv-x="1320" d="M33 836v239h164v27q0 193 113.5 272.5t297.5 79.5q338 0 533 -74l-58 -225q-195 59 -376 59q-144 0 -175.5 -20t-40 -48t-8.5 -71h666v-1075h-287v836h-379v-836h-286v836h-164z" />
<glyph unicode="&#xfb02;" horiz-adv-x="1388" d="M33 836v239h164v27q0 179 102 262q110 90 365 90q238 0 479 -37v-1040q0 -82 24.5 -118t79.5 -36t109 19l33 -222q-39 -18 -115 -34.5t-150 -16.5q-129 0 -198.5 56.5t-69.5 187.5v979q-73 22 -164.5 22t-125.5 -9t-52 -27q-31 -30 -31 -103h236v-239h-236v-836h-286v836 h-164z" />
<glyph horiz-adv-x="0" />
<glyph horiz-adv-x="2048" />
<glyph unicode="&#xd;" horiz-adv-x="565" />
<glyph unicode=" "  horiz-adv-x="565" />
<glyph unicode="&#x09;" horiz-adv-x="565" />
<glyph unicode="&#xa0;" horiz-adv-x="565" />
<glyph unicode="!" horiz-adv-x="643" d="M184 141q0 74 49.5 117t130 43t130 -43t49.5 -117t-49.5 -119t-130.5 -45t-130 45t-49 119zM215 764v670h299v-670l-57 -330h-185z" />
<glyph unicode="&#x22;" horiz-adv-x="892" d="M203 987v447h254l-78 -447h-176zM529 987v447h254l-78 -447h-176z" />
<glyph unicode="#" d="M18 416l50 207h168l53 208h-160l49 207h164l76 293h237l-75 -293h198l76 293h238l-76 -293h158l-54 -207h-157l-56 -208h154l-53 -207h-154l-78 -314h-237l79 314h-198l-80 -314h-238l80 314h-164zM473 623h199l53 208h-199z" />
<glyph unicode="$" d="M129 1038q0 186 101.5 286.5t275.5 127.5v186h231v-180q179 -11 307 -72l-77 -241q-93 42 -230 61v-356q183 -70 251.5 -131.5t102 -129t33.5 -161.5q0 -197 -103 -304.5t-284 -137.5v-191h-231v178q-241 8 -371 74l86 248q102 -57 285 -72v385q-179 69 -245 132 t-99 131.5t-33 166.5zM424 1052q0 -46 50 -82t128 -69v313q-149 -6 -171 -90q-7 -26 -7 -72zM641 221q188 19 188 170q0 61 -53 98t-135 70v-338z" />
<glyph unicode="%" horiz-adv-x="1857" d="M109 1108q0 94 28.5 159.5t80.5 107.5q103 83 280 83q278 0 360 -188q29 -66 29 -161t-29 -160.5t-81 -107.5q-98 -79 -279 -79q-279 0 -360 186q-29 66 -29 160zM225 129l1274 1341l162 -157l-1280 -1342zM369 1116q0 -86 28.5 -131t99.5 -45t99.5 39t28.5 131t-29 131 t-98 39q-70 0 -99.5 -39t-29.5 -125zM1012 346q0 94 28.5 159.5t81.5 107.5q103 83 279 83q280 0 361 -188q28 -66 28 -161t-28.5 -160.5t-81.5 -107.5q-98 -79 -279 -79q-279 0 -361 186q-28 66 -28 160zM1272 354q0 -86 28.5 -131t99.5 -45t99.5 39t28.5 131t-29 131 t-98 39q-70 0 -99.5 -39t-29.5 -125z" />
<glyph unicode="&#x26;" horiz-adv-x="1812" d="M205 399q0 147 104 279q94 120 271 211q-127 152 -127 280q0 191 205 267q73 26 177.5 26t176 -22.5t115.5 -59.5q83 -70 83 -184q0 -82 -62.5 -173t-217.5 -173q124 -172 202 -252t125 -123q97 101 166 289l209 -119q-85 -186 -194 -313q104 -87 227 -152l-156 -209 q-118 52 -249 170q-205 -170 -502 -170q-232 0 -390 115q-163 119 -163 313zM492 415q0 -91 83.5 -147.5t197.5 -56.5q205 0 308 98q-211 204 -370 414q-109 -76 -164 -146.5t-55 -161.5zM739 1155q0 -84 82 -178q164 93 164 174q0 104 -127 104q-59 0 -89 -27.5t-30 -72.5z " />
<glyph unicode="'" horiz-adv-x="567" d="M203 987v447h254l-78 -447h-176z" />
<glyph unicode="(" horiz-adv-x="729" d="M135 498q0 400 202 735q73 121 177 225l184 -125q-276 -333 -276 -835q0 -339 154 -634q53 -102 126 -188l-196 -127q-190 183 -288 458q-83 234 -83 491z" />
<glyph unicode=")" horiz-adv-x="729" d="M27 -324q207 240 263 614q17 109 17 208q0 502 -276 835l184 125q197 -197 295 -472q84 -235 84 -488q0 -403 -198 -732q-70 -118 -173 -217z" />
<glyph unicode="*" horiz-adv-x="835" d="M94 1106v160h129l129 -37l-110 92l-62 104l139 80l62 -96l33 -125l32 117l62 104l137 -75l-65 -111l-105 -90l143 35h123v-158h-118l-134 37l109 -99l55 -92l-139 -78l-59 99l-43 133l-29 -121l-64 -106l-139 79l66 107l98 76l-123 -35h-127z" />
<glyph unicode="+" horiz-adv-x="1169" d="M96 567v246h361v369h254v-369h360v-246h-360v-370h-254v370h-361z" />
<glyph unicode="," horiz-adv-x="516" d="M94 -184q57 18 99.5 68t50.5 108q-49 -6 -94.5 29.5t-45.5 110.5t49.5 117t132 42t136 -59.5t53.5 -153.5t-30.5 -162t-76.5 -112q-79 -75 -192 -107z" />
<glyph unicode="-" horiz-adv-x="800" d="M121 463v254h559v-254h-559z" />
<glyph unicode="." horiz-adv-x="546" d="M94 141q0 74 49.5 117t130 43t130 -43t49.5 -117t-49.5 -119t-130.5 -45t-130 45t-49 119z" />
<glyph unicode="/" horiz-adv-x="907" d="M-49 -176l790 1634l217 -102l-794 -1643z" />
<glyph unicode="0" d="M61 726q0 360 140.5 548t412 188t403.5 -185t132 -554t-141.5 -560.5t-403.5 -191.5q-272 0 -410 202q-133 193 -133 553zM356 725q0 -242 57.5 -378t191.5 -136t191.5 123t57.5 385q0 373 -132 469q-48 35 -118 35q-133 0 -190.5 -128t-57.5 -370z" />
<glyph unicode="1" d="M117 1083l501 375h162v-1218h301v-240h-884v240h307v788l35 141l-107 -122l-201 -132z" />
<glyph unicode="2" d="M127 0v143q177 177 249.5 257.5t137 161.5t113.5 161q110 180 110 299q0 78 -47 132t-140 54q-174 0 -294 -106l-119 205q88 66 196.5 110.5t231.5 44.5t204 -24.5t139.5 -71.5t91 -120t32.5 -171t-41 -202.5t-103 -204.5q-107 -169 -290 -367l-117 -84v-10l158 33h424 v-240h-936z" />
<glyph unicode="3" d="M147 37l78 237q133 -63 289 -63q200 0 262 136q19 40 19 83q0 111 -75 164t-241 53h-162v152l265 323l129 95l-176 -23h-371v240h852v-154l-307 -377l-101 -55v-10l94 12q158 -12 266 -113q113 -106 113 -291q0 -230 -163 -358q-150 -117 -400 -117q-142 0 -294 38 q-44 11 -77 28z" />
<glyph unicode="4" d="M18 395v160l705 889h238v-826h243v-223h-243v-395h-269v395h-674zM285 600l143 18h264v295l17 166h-9l-73 -139l-228 -264z" />
<glyph unicode="5" d="M125 31l78 237q122 -43 265.5 -43t222.5 58.5t79 169.5q0 229 -354 229l-178 -8v760h766v-267h-517v-254l93 9q217 -8 346 -132q131 -124 131 -329q0 -235 -169 -367q-159 -123 -419 -123q-208 0 -344 60z" />
<glyph unicode="6" d="M90 516q0 384 234 650q221 250 557 296l59 -223q-208 -30 -370 -173q-150 -134 -191 -304q47 51 114.5 89t173 38t190.5 -31t145.5 -88t93 -139.5t32.5 -182.5t-36.5 -185t-103.5 -151q-143 -141 -367 -141q-235 0 -379 139q-152 145 -152 406zM365 469q0 -103 61 -176 q69 -82 188 -82q102 0 170 65q66 65 66 156q0 217 -244 217q-90 0 -151.5 -35.5t-85.5 -85.5q-4 -23 -4 -34v-25z" />
<glyph unicode="7" d="M106 1163v271h1006v-80l-623 -1354h-282l504 1083l98 101l-135 -21h-568z" />
<glyph unicode="8" d="M109 348q0 78 20.5 134.5t56.5 101.5q64 78 195 147q-111 63 -171 145t-60 182.5t31.5 170t92.5 121.5q128 112 344 112q201 0 323 -97t122 -251q0 -121 -56.5 -204t-172.5 -152q131 -72 200.5 -156t69.5 -196.5t-37 -188.5t-103 -130q-143 -116 -366 -116t-356 107 q-133 106 -133 270zM373 390q0 -69 60.5 -124t166.5 -55t167.5 44t61.5 128q0 109 -180 207q-49 26 -98 49q-102 -53 -140 -116.5t-38 -132.5zM424 1082q0 -54 21.5 -91t56.5 -65q56 -43 170 -92q129 102 129 223q0 82 -55.5 124t-143.5 42t-133 -43.5t-45 -97.5z" />
<glyph unicode="9" d="M70 978.5q0 108.5 34.5 196t99.5 151.5q138 136 384 136t389 -140t143 -390t-65.5 -424t-176.5 -290q-212 -223 -559 -247l-61 219q351 40 495 286q44 75 62 159q-53 -53 -115.5 -73.5t-156.5 -20.5t-177 26.5t-148.5 82t-106.5 138t-41 191zM348 996q0 -112 73 -169 t172 -57q165 0 247 92q2 23 4 41.5t2 53t-15.5 88t-48.5 95.5q-71 93 -192 93t-181.5 -62.5t-60.5 -174.5z" />
<glyph unicode=":" horiz-adv-x="649" d="M209 141q0 74 49 117t130 43t130 -43t49 -117t-49 -119t-130 -45t-130 45t-49 119zM209 874q0 74 49 117t130 43t130 -43t49 -117t-49 -118.5t-130 -44.5t-130 44.5t-49 118.5z" />
<glyph unicode=";" horiz-adv-x="630" d="M168 -184q57 18 99 68t50 108q-49 -6 -94 29.5t-45 110.5t49 117t132 42t136.5 -59.5t53.5 -153.5t-31 -162t-77 -112q-79 -76 -191 -107zM176 874q0 74 49 117t130 43t130.5 -43t49.5 -117t-49.5 -118.5t-130.5 -44.5t-130 44.5t-49 118.5z" />
<glyph unicode="&#x3c;" horiz-adv-x="1169" d="M86 580v151l868 483l119 -200l-493 -283l-203 -72l201 -63l505 -279l-116 -200z" />
<glyph unicode="=" horiz-adv-x="1169" d="M96 369v245h977v-245h-977zM96 766v246h977v-246h-977z" />
<glyph unicode="&#x3e;" horiz-adv-x="1169" d="M86 1016l115 201l882 -465v-152l-872 -485l-115 204l494 281l203 74l-201 61z" />
<glyph unicode="?" horiz-adv-x="1005" d="M49 1333q197 129 461 129q207 0 326.5 -94t119.5 -254q0 -189 -105 -294q-46 -46 -98.5 -79.5t-98.5 -71.5q-105 -87 -105 -235h-250q-28 273 162 413q49 36 93 68.5t73.5 68.5t29.5 97.5t-42 101.5t-152 40q-109 0 -239 -63q-38 -19 -64 -40zM256 141q0 74 49 117 t130 43t130 -43t49 -117t-49 -119t-130 -45t-130 45t-49 119z" />
<glyph unicode="@" horiz-adv-x="2349" d="M164 483q0 227 85 412.5t231.5 318t340 204t403.5 71.5t384 -57.5t302 -165t200.5 -259t72.5 -310t-50 -272.5t-136 -198t-203 -133t-250 -49q-191 0 -232 124q-16 46 -7 114h-9q-84 -113 -144 -156q-114 -82 -241 -82q-111 0 -184 83q-76 87 -76 213t44 243.5t120 210 t176.5 149.5t222 57t224.5 -79l69 67h156l-109 -549q-10 -58 -10 -78q0 -92 84 -92q125 0 212 96q97 106 97 283t-56 288.5t-153 182.5q-187 137 -505 137q-172 0 -320.5 -59t-258 -161.5t-171 -242t-61.5 -300t51 -289.5t151 -221q207 -193 590 -193q148 0 291 59l68 -215 q-168 -75 -394.5 -75t-410 61.5t-315.5 180.5q-279 250 -279 681zM920 422q0 -66 29.5 -109t105.5 -43q97 0 201 134q30 40 55 83l55 242q-55 47 -131 47t-132 -33.5t-97 -86.5q-86 -110 -86 -234z" />
<glyph unicode="A" horiz-adv-x="1347" d="M0 0l561 1444h223l564 -1444h-322l-123 305h-483l-117 -305h-303zM504 545h327l-110 299l-49 227h-10l-50 -229z" />
<glyph unicode="B" horiz-adv-x="1312" d="M133 10v1413q222 31 400.5 31t281.5 -15.5t185 -55.5q182 -90 182 -287q0 -188 -150 -281q-53 -33 -129 -47v-12q224 -20 301 -206q25 -63 25 -161.5t-52.5 -178t-136.5 -130.5q-165 -100 -413 -100h-97q-254 0 -397 30zM424 238q39 -13 147.5 -13t160.5 10.5t92 34.5 q87 51 87 148q0 169 -205 187q-57 5 -114 5h-168v-372zM424 836h102q100 0 144 6q86 27 145 73t59 112t-22.5 99t-60 51.5t-85 24.5t-136 6t-146.5 -8v-364z" />
<glyph unicode="C" horiz-adv-x="1243" d="M82 717q0 209 65.5 351t168 229t227.5 126t251 39q228 0 369 -55l-59 -254q-95 43 -293 43q-289 0 -378 -268q-30 -90 -30 -203.5t27 -202t80 -152.5q111 -132 326 -132q171 0 290 65l60 -242q-130 -90 -406 -90q-301 0 -486 172q-212 197 -212 574z" />
<glyph unicode="D" horiz-adv-x="1437" d="M133 -2v1436q150 20 404 20t400 -54t239 -150q180 -186 180 -521q0 -320 -178 -519q-209 -233 -619 -233q-80 0 -238.5 8.5t-187.5 12.5zM436 252q40 -8 162.5 -8t208.5 41t136 109q91 122 91 331q0 304 -215 419q-82 44 -212 44t-171 -6v-930z" />
<glyph unicode="E" horiz-adv-x="1159" d="M133 0v1434h924v-267h-621v-311h563v-266h-563v-324h631v-266h-934z" />
<glyph unicode="F" horiz-adv-x="1128" d="M133 0v1434h924v-267h-621v-333h572v-267h-572v-567h-303z" />
<glyph unicode="G" horiz-adv-x="1353" d="M82 717q0 376 236 576q201 169 495 169q213 0 393 -57l-63 -252q-131 43 -263 43t-212 -25.5t-140 -82.5q-125 -122 -125 -373q0 -239 123 -365q107 -112 311 -112q107 0 181 51v248l-340 32v185h586v-643q-131 -103 -350 -131q-66 -9 -130 -9q-313 0 -498 177 q-204 195 -204 569z" />
<glyph unicode="H" horiz-adv-x="1445" d="M133 0v1434h303v-576h574v576h303v-1434h-303v592h-574v-592h-303z" />
<glyph unicode="I" horiz-adv-x="794" d="M82 0v164h164v1106h-164v164h631v-164h-164v-1106h164v-164h-631z" />
<glyph unicode="J" horiz-adv-x="741" d="M-51 25l65 241q58 -27 116 -27q1 0 2 1q60 0 89 17t45 49q27 51 27 167v961h303v-1045q0 -168 -85 -283q-99 -133 -290 -133q-153 0 -272 52z" />
<glyph unicode="K" horiz-adv-x="1374" d="M133 0v1434h303v-631l72 31l430 600h346l-455 -600l-118 -78l123 -82l520 -674h-375l-463 606h-80v-606h-303z" />
<glyph unicode="L" horiz-adv-x="1140" d="M133 0v1434h303v-1168h684v-266h-987z" />
<glyph unicode="M" horiz-adv-x="1777" d="M133 0v1434h275l413 -662l78 -158h10l68 162l395 658h273v-1434h-304v719l33 297h-12l-98 -225l-332 -535h-94l-353 537l-96 221h-12l43 -293v-721h-287z" />
<glyph unicode="N" horiz-adv-x="1460" d="M133 0v1444h219l592 -764l117 -209h12l-33 211v752h287v-1444h-219l-588 758l-123 215h-10l33 -218v-745h-287z" />
<glyph unicode="O" horiz-adv-x="1488" d="M82 722q0 171 45 310t130 234q174 196 486 196q323 0 497 -206q167 -199 167 -539q0 -353 -178 -550q-177 -196 -486 -196q-321 0 -496 207q-165 195 -165 544zM403 717q0 -344 187 -445q65 -34 153 -34q162 0 252 110.5t90 368.5q0 340 -185 443q-64 36 -157 36 q-160 0 -250 -114.5t-90 -364.5z" />
<glyph unicode="P" horiz-adv-x="1269" d="M133 0v1419q201 35 373 35t288.5 -17.5t209.5 -69.5q213 -118 213 -392q0 -254 -188 -385q-164 -115 -417 -115h-67q-57 0 -109 8v-483h-303zM436 752q44 -11 117 -11t132.5 8.5t106.5 34.5q103 59 103 197q0 207 -311 207q-106 0 -148 -10v-426z" />
<glyph unicode="Q" horiz-adv-x="1488" d="M82 722q0 171 45 310t130 234q174 196 486 196q323 0 497 -206q167 -199 167 -539q0 -353 -178 -550q-177 -196 -486 -196q-321 0 -496 207q-165 195 -165 544zM403 717q0 -344 187 -445q65 -34 153 -34q162 0 252 110.5t90 368.5q0 340 -185 443q-64 36 -157 36 q-160 0 -250 -114.5t-90 -364.5zM446 -72q65 12 133 12q87 0 179 -20q94 -20 190 -43.5t197.5 -44t208 -20.5t207.5 20v-266q-98 -25 -213 -25t-222.5 20.5t-207 46t-192.5 46t-161.5 20.5t-118.5 -12v266z" />
<glyph unicode="R" horiz-adv-x="1335" d="M133 0v1419q214 35 384 35t275 -18.5t188 -63.5q185 -100 185 -321q0 -176 -87 -290t-240 -155l108 -63l359 -543h-353l-356 555l-160 25v-580h-303zM436 784h129q129 0 204 49.5t75 155t-63.5 152.5t-186 47t-158.5 -8v-396z" />
<glyph unicode="S" horiz-adv-x="1177" d="M57 61l101 256q99 -52 256 -75q57 -9 114 -9q277 0 277 160q0 63 -53.5 100t-132 68t-171 61.5t-171 82t-132 129t-53.5 193t38 197t106 133.5q139 105 380 105q294 0 457 -90l-96 -254q-146 82 -367 82q-102 0 -158.5 -36t-56.5 -99t53.5 -101t132 -70t171 -63.5 t171 -82t132 -126t53.5 -194.5q0 -229 -156 -347q-147 -110 -409 -110q-222 0 -409 61q-48 15 -77 29z" />
<glyph unicode="T" horiz-adv-x="1261" d="M25 1167v267h1212v-267h-455v-1167h-303v1167h-454z" />
<glyph unicode="U" horiz-adv-x="1390" d="M125 479v955h303v-899q0 -164 71.5 -228.5t210 -64.5t204 68.5t65.5 224.5v899h287v-920q0 -272 -153 -410q-144 -129 -414.5 -129t-422 126t-151.5 378z" />
<glyph unicode="V" horiz-adv-x="1339" d="M-20 1434h352l313 -828l41 -244h10l45 246l299 826h320l-580 -1444h-217z" />
<glyph unicode="W" horiz-adv-x="1921" d="M0 1434h332l207 -789l28 -254h8l33 258l273 785h196l269 -789l32 -254h11l30 258l191 785h311l-430 -1444h-205l-278 780l-37 221h-15l-36 -223l-277 -778h-215z" />
<glyph unicode="X" horiz-adv-x="1402" d="M20 0l480 729l-434 705h366l240 -408l55 -141l53 141l250 408h330l-451 -691l473 -743h-362l-275 436l-61 148l-59 -148l-275 -436h-330z" />
<glyph unicode="Y" horiz-adv-x="1318" d="M-4 1434h360l287 -527l33 -153h10l35 157l276 523h326l-512 -904v-530h-303v528z" />
<glyph unicode="Z" horiz-adv-x="1196" d="M57 0v266l658 817l119 84h-777v267h1082v-267l-662 -823l-115 -78h777v-266h-1082z" />
<glyph unicode="[" horiz-adv-x="716" d="M133 -471v1905h520v-240h-245v-1425h245v-240h-520z" />
<glyph unicode="\" horiz-adv-x="942" d="M-49 1352l221 104l807 -1636l-225 -107z" />
<glyph unicode="]" horiz-adv-x="716" d="M63 -231h246v1425h-246v240h521v-1905h-521v240z" />
<glyph unicode="^" horiz-adv-x="1095" d="M47 842l436 602h154l412 -602h-291l-160 243l-47 144l-55 -146l-172 -241h-277z" />
<glyph unicode="_" horiz-adv-x="989" d="M0 -231h989v-232h-989v232z" />
<glyph unicode="`" horiz-adv-x="716" d="M139 1432v61h301l138 -324h-152z" />
<glyph unicode="a" horiz-adv-x="1185" d="M61 295q0 369 492 369q63 0 195 -23q6 43 6 74q0 78 -39 114.5t-146 36.5q-187 0 -356 -82l-76 217q92 41 226.5 68t262.5 27t204.5 -27t121.5 -77q84 -93 84 -277q0 -104 -8 -206.5t-8 -243t43 -267.5h-234l-47 160h-24q-128 -174 -346 -174q-158 0 -253 87 q-98 89 -98 224zM356 360q0 -147 168 -147q84 0 141.5 45t84.5 94v123q-62 25 -175 25t-166 -40t-53 -100z" />
<glyph unicode="b" horiz-adv-x="1267" d="M147 43v1391h287v-451h25q106 119 305 119t308.5 -136.5t109.5 -398.5q0 -280 -154 -438q-152 -156 -431 -156t-450 70zM434 244q64 -31 187 -31q266 0 266 348q0 147 -55.5 224t-163.5 77q-175 0 -234 -170v-448z" />
<glyph unicode="c" horiz-adv-x="1024" d="M86 537q0 268 132 418.5t384 150.5q204 0 342 -70l-70 -229q-104 45 -227 45q-266 0 -266 -315q0 -218 155 -289q54 -25 133 -25q127 0 224 58l65 -215q-144 -97 -368 -97q-504 0 -504 568z" />
<glyph unicode="d" horiz-adv-x="1286" d="M86 518q0 274 134 428q139 158 378 158q115 0 242 -39v369h286v-1057q0 -246 21 -379h-199l-41 149h-26q-47 -82 -134.5 -130t-207.5 -48q-215 0 -334 134.5t-119 414.5zM381 540q0 -165 56 -248t163.5 -83t161 44t78.5 126v430q-70 55 -198 55t-194.5 -79.5 t-66.5 -244.5z" />
<glyph unicode="e" horiz-adv-x="1216" d="M86 545q0 273 145.5 417t409.5 144q318 0 425 -228q40 -85 40 -199.5t-23 -211.5h-716q10 -139 80.5 -205.5t230.5 -66.5q96 0 173 27.5t118 56.5l98 -181q-70 -53 -189.5 -91t-256.5 -38q-276 0 -405.5 151.5t-129.5 424.5zM377 637h463q1 17 1 33q0 211 -211 211 q-120 0 -181.5 -69t-71.5 -175z" />
<glyph unicode="f" horiz-adv-x="757" d="M33 836v239h162v68q0 173 106 251q87 64 248 64q190 0 307 -39l-53 -223q-92 29 -180 29t-115 -33t-27 -117h262v-239h-262v-836h-286v836h-162z" />
<glyph unicode="g" horiz-adv-x="1267" d="M86 542q0 276 144.5 419t419.5 143t470 -64v-999q0 -463 -518 -463q-270 0 -407 70q37 112 51 169.5t18 69.5q49 -25 119 -50t162 -25t147.5 16t87.5 48q60 59 60 177v80h-25q-75 -108 -292.5 -108t-327 120.5t-109.5 396.5zM381 547q0 -156 57.5 -227.5t152.5 -71.5 t155.5 34.5t87.5 86.5v462q-76 33 -197 33q-256 0 -256 -317z" />
<glyph unicode="h" horiz-adv-x="1306" d="M147 0v1434h287v-490h25q124 162 348 162q183 0 263 -96q89 -106 89 -355v-655h-287v592q0 139 -42 199.5t-139 60.5t-165.5 -52t-91.5 -138v-662h-287z" />
<glyph unicode="i" horiz-adv-x="649" d="M139 1346.5q0 62.5 47 106.5t134 44t138.5 -45t51.5 -106.5t-51 -104.5t-138.5 -43t-134.5 43t-47 105.5zM182 0v1075h287v-1075h-287z" />
<glyph unicode="j" horiz-adv-x="649" d="M-12 -199q17 -2 32 -2q138 0 159 131q7 45 7 105v1040h287v-1124q0 -195 -80 -299.5t-258 -104.5q-70 0 -147 15v239zM141 1346.5q0 62.5 47 106.5t134 44t138.5 -45t51.5 -106.5t-51 -104.5t-138.5 -43t-134.5 43t-47 105.5z" />
<glyph unicode="k" horiz-adv-x="1155" d="M147 0v1434h287v-824l90 39l269 426h315l-274 -391h2l-131 -94l137 -90h-2l315 -500h-332l-291 446h-98v-446h-287z" />
<glyph unicode="l" horiz-adv-x="690" d="M154 213v1221h286v-1057q0 -156 101 -156q54 0 114 23l35 -224q-121 -53 -260 -53t-207.5 57.5t-68.5 188.5z" />
<glyph unicode="m" horiz-adv-x="1925" d="M147 0v1075h222l32 -149h27q139 180 350 180q109 0 181.5 -48t115.5 -161q126 209 342 209q201 0 279 -100q82 -106 82 -385v-621h-287v575q0 147 -24.5 194.5t-58.5 65t-89 17.5q-166 0 -213 -166v-686h-287v561q0 156 -32.5 223.5t-135.5 67.5q-152 0 -217 -152v-700 h-287z" />
<glyph unicode="n" horiz-adv-x="1306" d="M147 0v1075h226l30 -153h31q128 184 371 184q183 0 263 -96q91 -108 91 -361v-649h-287v590q0 139 -43 200.5t-143 61.5t-164.5 -50t-89.5 -128l2 -674h-287z" />
<glyph unicode="o" horiz-adv-x="1261" d="M86 543.5q0 259.5 141.5 411t403.5 151.5q267 0 409 -163q136 -155 136 -406q0 -263 -144 -416q-142 -152 -401 -152q-269 0 -411 163q-134 152 -134 411.5zM381 537q0 -225 135 -301q47 -27 115 -27q250 0 250 328q0 237 -135 305q-48 24 -115 24q-117 0 -183.5 -77.5 t-66.5 -251.5z" />
<glyph unicode="p" horiz-adv-x="1275" d="M147 -408v1483h205l35 -133h25q126 164 343.5 164t326 -130t108.5 -413q0 -272 -138 -433q-139 -163 -385 -163q-119 0 -233 49v-424h-287zM434 268q74 -61 200 -61q261 0 261 364q0 137 -52 216t-162.5 79t-164 -44t-82.5 -136v-418z" />
<glyph unicode="q" horiz-adv-x="1267" d="M86 522.5q0 280.5 155.5 431t448.5 150.5q164 0 347 -42q48 -11 83 -24v-1446h-286v510h-25q-87 -133 -292.5 -133t-318 136.5t-112.5 417zM381 526q0 -154 59 -235.5t162.5 -81.5t155 41t76.5 121v463q-69 30 -197.5 30t-192 -92t-63.5 -246z" />
<glyph unicode="r" horiz-adv-x="831" d="M147 0v1075h226l30 -149h27q85 174 266 174q55 0 127 -23l-41 -264q-61 21 -137 21h-2q-75 0 -132 -43q-58 -43 -77 -109v-682h-287z" />
<glyph unicode="s" horiz-adv-x="989" d="M74 53l71 226q174 -84 332 -84q72 0 112 22.5t40 77.5t-53.5 78.5t-121 43t-130 42t-114.5 60.5q-120 88 -120 252.5t100.5 249.5t288.5 85q240 0 404 -72l-60 -217q-170 64 -305 64q-72 0 -106.5 -21.5t-34.5 -72t54 -74t121.5 -42.5t130 -41t113.5 -58 q119 -84 119 -249t-111.5 -259.5t-334.5 -94.5q-262 0 -395 84z" />
<glyph unicode="t" horiz-adv-x="827" d="M16 836v239h164v148l287 75v-223h289v-239h-289v-373q0 -129 25.5 -185.5t103 -56.5t147.5 31l60 -215q-159 -70 -317.5 -70t-232 79t-73.5 253v537h-164z" />
<glyph unicode="u" horiz-adv-x="1314" d="M147 418v657h287v-596q0 -133 37 -194.5t134 -61.5t158.5 47t90.5 119v686h287v-747q0 -184 35 -328h-211l-56 168h-22q-53 -86 -151.5 -142.5t-206 -56.5t-175 22.5t-113.5 74.5q-94 108 -94 352z" />
<glyph unicode="v" horiz-adv-x="1118" d="M-25 1075h334l217 -557l43 -166h33l31 170l201 553h309l-492 -1085h-164z" />
<glyph unicode="w" horiz-adv-x="1689" d="M-12 1075h311l172 -530l29 -199h30l41 201l195 528h211q55 -135 108.5 -272t108.5 -273l41 -180h31l30 182q37 137 76 271.5t76 271.5h262l-367 -1085h-206q-55 141 -119 295.5t-119 296.5l-29 139h-36q-6 -35 -14.5 -71t-14.5 -70l-223 -590h-217z" />
<glyph unicode="x" horiz-adv-x="1202" d="M12 0l381 551l-352 524h348l146 -209l-3 2l84 -190l82 190l-2 -2l156 209h315l-354 -516l377 -559h-340l-174 242l2 -2l-86 188l-90 -188l2 2l-176 -242h-316z" />
<glyph unicode="y" horiz-adv-x="1107" d="M-25 1075h347l219 -596l45 -172h20l39 172l182 596h293l-356 -973q-45 -121 -85 -217t-87 -163q-97 -140 -244 -140q-112 0 -184 37l59 221q31 -10 62 -10t57.5 6t49.5 24q50 39 75 134z" />
<glyph unicode="z" horiz-adv-x="1077" d="M86 0v244l453 487h-2l133 105h-584v239h905v-244l-448 -493h2l-135 -98h581v-240h-905z" />
<glyph unicode="{" horiz-adv-x="825" d="M98 373v217q178 0 178 174v416q0 111 56.5 183.5t179.5 72.5h266v-240h-112q-59 0 -87 -29.5t-28 -95.5v-383q0 -90 -48 -136t-108 -56v-21q59 -8 107.5 -61.5t48.5 -139.5v-380q0 -63 27.5 -94t89.5 -31h110v-240h-266q-115 0 -175.5 66.5t-60.5 187.5v407 q0 104 -46 143.5t-132 39.5z" />
<glyph unicode="|" horiz-adv-x="503" d="M133 -266v1700h238v-1700h-238z" />
<glyph unicode="}" horiz-adv-x="825" d="M47 -231h111q59 0 87.5 29.5t28.5 95.5v382q0 90 47.5 136.5t108.5 56.5v20q-59 8 -107.5 61.5t-48.5 139.5v381q0 63 -27.5 94t-90.5 31h-109v240h264q117 0 177.5 -68t60.5 -188v-406q0 -104 46 -143t132 -39v-217q-178 0 -178 -174v-414q0 -111 -60.5 -184.5 t-183.5 -73.5h-258v240z" />
<glyph unicode="~" horiz-adv-x="1169" d="M61 778q187 140 342 140q88 0 226 -56q51 -20 100 -37.5t119 -17.5t156 61l104 -221q-140 -100 -268 -100q-87 0 -220 61q-51 23 -102 41.5t-108 18.5q-124 0 -252 -105z" />
<glyph unicode="&#xa1;" horiz-adv-x="641" d="M96 887q0 74 49.5 117t130 43t130 -43t49.5 -117t-49.5 -119t-130.5 -45t-130 45t-49 119zM121 260l57 330h182l60 -330v-670h-299v670z" />
<glyph unicode="&#xa2;" d="M160 512q0 229 105.5 365.5t309.5 166.5v185h267v-185q118 -15 202 -55l-69 -235q-79 29 -144 37v-560q89 14 160 54l70 -219q-79 -52 -219 -78v-193h-267v182q-415 51 -415 535zM446 528q0 -234 179 -286v544q-90 -20 -134.5 -85.5t-44.5 -172.5z" />
<glyph unicode="&#xa3;" d="M90 0v254h4q141 4 211 71.5t70 166.5q0 41 -10 86h-275v233h152q-70 113 -70 230.5t37 193.5t103 127q128 100 356 100q239 0 440 -86l-94 -260q-135 76 -312 76q-106 0 -166.5 -43t-60.5 -120t28.5 -124t63.5 -94h307v-233h-206l2 -48q0 -63 -22.5 -129.5t-72.5 -111.5 l-83 -58v-10l137 33h512v-254h-1051z" />
<glyph unicode="&#xa4;" d="M29 307l157 160l74 37q-51 91 -51 197t55 214l-78 35l-157 160l164 170l159 -158l37 -75q78 59 212 59t220 -59l39 75l160 158l164 -172l-158 -160l-76 -30q54 -80 54 -212t-54 -206l76 -33l158 -160l-164 -168l-160 158l-35 74q-81 -60 -216 -60t-220 60l-37 -74 l-159 -158zM442 708q0 -73 46.5 -122t119 -49t117.5 49t45 122t-45 123t-118 50t-119 -50t-46 -123z" />
<glyph unicode="&#xa5;" d="M-57 1434h360l287 -527l33 -153h10l35 157l276 523h326l-420 -742h199v-192h-291v-119h291v-193h-291v-188h-303v188h-291v193h291v119h-291v192h198z" />
<glyph unicode="&#xa6;" horiz-adv-x="503" d="M133 -266v702h238v-702h-238zM133 731v703h238v-703h-238z" />
<glyph unicode="&#xa7;" horiz-adv-x="1179" d="M109 723q0 127 122 231l93 27q-131 73 -131 217q0 117 96 190.5t291 73.5q133 0 245.5 -20.5t173.5 -48.5l-71 -232q-49 25 -134 43.5t-167 18.5q-148 0 -148 -74q0 -37 44 -55.5t109.5 -34t141.5 -33.5t142 -55q153 -87 153 -260q0 -130 -121 -228l-100 -28 q139 -78 139 -213t-106.5 -203t-273.5 -68q-258 0 -435 97l78 217q151 -74 297 -74q82 0 117.5 17.5t35.5 57.5t-44 59.5t-109.5 34.5t-142 33.5t-142.5 54.5q-153 84 -153 255zM395 733q0 -41 18.5 -65.5t53.5 -43.5q59 -30 201 -65q49 25 81.5 65t32.5 80t-18.5 64.5 t-53.5 42.5q-37 19 -206 68q-43 -25 -76 -65t-33 -81z" />
<glyph unicode="&#xa8;" horiz-adv-x="1095" d="M137 1351.5q0 66.5 44 109t114 42.5t112 -43t42 -109t-42 -109.5t-112 -43.5t-114 43.5t-44 110zM655 1351.5q0 66.5 42 109t113 42.5t113 -43t42 -109t-42 -109.5t-113 -43.5t-113 43.5t-42 110z" />
<glyph unicode="&#xa9;" horiz-adv-x="1822" d="M119 585q0 181 61.5 327.5t167.5 249.5q220 214 563 214q342 0 561 -214q107 -103 168.5 -249.5t61.5 -327.5t-61.5 -327.5t-168 -249t-251 -159t-318.5 -56.5t-321.5 56.5t-250 159t-157.5 249t-55 327.5zM338 586q0 -270 163 -428q162 -156 410 -156q249 0 411 156 q163 158 163 428q0 267 -163 424q-162 157 -411 157q-248 0 -410 -157q-163 -157 -163 -424zM543 589q0 196 99 304t263 108q135 0 266 -69l-73 -197q-64 31 -129 31q-131 0 -131 -181t147 -182q71 0 135 33l66 -196q-100 -70 -278.5 -70t-271.5 111.5t-93 307.5z" />
<glyph unicode="&#xaa;" horiz-adv-x="980" d="M117 961.5q0 76.5 32.5 119.5t90.5 70q108 51 299 51l59 -2q4 47 -15.5 69.5t-129 22.5t-246.5 -51l-47 135q141 74 401 74q235 0 279 -129q14 -43 14 -102l-6 -269q0 -110 16 -172h-231l-27 96h-8q-29 -35 -82 -69.5t-157.5 -34.5t-173 57.5t-68.5 134zM375 1001 q0 -31 23.5 -48t58.5 -17t58.5 7t39.5 17q23 16 43 48v65q-36 4 -72 4q-151 0 -151 -76z" />
<glyph unicode="&#xab;" horiz-adv-x="1085" d="M63 530l357 471l170 -143l-187 -242l-106 -84l106 -73l201 -238l-172 -143zM496 535l344 440l151 -129l-174 -234l-102 -80l102 -71l187 -232l-152 -129z" />
<glyph unicode="&#xac;" horiz-adv-x="1169" d="M100 606v246h985v-477h-256v231h-729z" />
<glyph unicode="&#xad;" horiz-adv-x="800" d="M121 463v254h559v-254h-559z" />
<glyph unicode="&#xae;" horiz-adv-x="1505" d="M131 891q0 285 185 459q171 161 438 161q268 0 439 -161q181 -170 181 -459q0 -284 -184 -459q-170 -162 -436 -162q-270 0 -442 162q-181 170 -181 459zM342 887q0 -100 34 -179t90 -132q110 -103 288 -103q180 0 290 103q119 109 119 315q0 202 -121 314 q-113 104 -288 104q-185 0 -298 -112q-114 -112 -114 -310zM528 610v566q77 22 193 22t183 -39t67 -120t-45 -118.5t-111 -41.5l59 -31l142 -238h-133l-138 228l-104 32v-260h-113zM641 936h76q133 0 133 86q0 37 -34 57.5t-95 20.5t-80 -8v-156z" />
<glyph unicode="&#xaf;" horiz-adv-x="964" d="M123 1196v195h719v-195h-719z" />
<glyph unicode="&#xb0;" horiz-adv-x="972" d="M119 1114q0 78 29.5 141.5t79.5 109.5q107 97 255 97q155 0 261 -92q110 -97 110 -254q0 -155 -110 -249q-107 -91 -261 -91q-150 0 -255 91q-109 95 -109 247zM340 1117q0 -62 43 -96t102 -34t103.5 34t44.5 97t-44 98t-104 35q-59 0 -102 -36t-43 -98z" />
<glyph unicode="&#xb1;" horiz-adv-x="1169" d="M96 272v246h977v-246h-977zM96 836v245h361v357h256v-357h360v-245h-360v-226h-256v226h-361z" />
<glyph unicode="&#xb2;" horiz-adv-x="905" d="M102 1567q156 86 325 86t256 -69t87 -198q0 -154 -132 -276q-40 -37 -85 -74l-107 -49v-10l132 24h227v-223h-694v160q401 246 401 397q0 53 -31.5 72.5t-111.5 19.5t-189 -61z" />
<glyph unicode="&#xb3;" horiz-adv-x="905" d="M121 815l51 195q93 -39 199 -39q180 0 180 96q0 43 -42 68.5t-157 25.5h-88v82l158 152l96 49l-129 -12h-256v206h631v-137l-193 -176l-75 -37v-10l65 6q117 -4 182.5 -64.5t65.5 -152.5t-32 -146.5t-87 -89.5q-108 -67 -282 -67q-164 0 -287 51z" />
<glyph unicode="&#xb4;" horiz-adv-x="690" d="M162 1169l123 324h290v-59l-258 -265h-155z" />
<glyph unicode="&#xb6;" horiz-adv-x="1173" d="M57 1018q0 166 112 288q119 128 296 128h166v-1700h-238v864q-140 0 -241 130q-95 120 -95 290zM805 -266v1700h237v-1700h-237z" />
<glyph unicode="&#xb7;" horiz-adv-x="555" d="M98 653q0 74 49.5 117t130 43t130 -43t49.5 -117t-49.5 -119t-130.5 -45t-130 45t-49 119z" />
<glyph unicode="&#xb8;" horiz-adv-x="751" d="M139 -446l21 96q110 -7 147 8.5t44 29t7 29.5q0 68 -198 76l127 195h178l-57 -94q210 -13 210 -158q0 -93 -96 -146q-91 -49 -233 -49q-94 0 -150 13z" />
<glyph unicode="&#xb9;" horiz-adv-x="905" d="M86 1423l350 230h191v-654h196v-221h-669v221h219v308l20 98l-67 -68l-127 -84z" />
<glyph unicode="&#xba;" horiz-adv-x="974" d="M98 1108q0 94 29 159.5t81 107.5q103 83 279 83q279 0 361 -188q29 -66 29 -161t-29 -160.5t-81 -107.5q-98 -79 -280 -79q-277 0 -360 186q-29 66 -29 160zM358 1116q0 -86 29 -131t99.5 -45t99 39t28.5 131t-28.5 131t-98.5 39t-99.5 -39t-29.5 -125z" />
<glyph unicode="&#xbb;" horiz-adv-x="1085" d="M82 850l149 129l359 -434l-344 -441l-154 132l174 231l103 80l-103 71zM481 858l170 143l371 -452l-356 -471l-170 145l186 240l106 84l-106 74z" />
<glyph unicode="&#xbc;" horiz-adv-x="1943" d="M62 1219l350 229h191v-875h-254v529l20 96l-67 -65l-129 -84zM391 96l957 1368l186 -116l-958 -1377zM967 154v147l487 576h197v-531h170v-192h-170v-154h-221v154h-463zM1198 328l119 18h113v166l10 111h-10l-47 -99l-105 -129z" />
<glyph unicode="&#xbd;" horiz-adv-x="1996" d="M62 1219l350 229h191v-875h-254v529l20 96l-67 -65l-129 -84zM391 96l957 1368l186 -116l-958 -1377zM1192 789q156 86 325 86t256 -69t87 -198q0 -154 -132 -276q-40 -37 -85 -74l-107 -49v-10l132 24h227v-223h-694v160q401 246 401 397q0 53 -31.5 72.5t-111.5 19.5 t-189 -61z" />
<glyph unicode="&#xbe;" horiz-adv-x="2000" d="M86 610l51 195q93 -39 199 -39q180 0 180 96q0 43 -42 68.5t-157 25.5h-88v82l158 152l96 49l-129 -12h-256v206h631v-137l-193 -176l-75 -37v-10l65 6q117 -4 182.5 -64.5t65.5 -152.5t-32 -146.5t-87 -89.5q-108 -67 -282 -67q-164 0 -287 51zM448 96l957 1368 l186 -116l-958 -1377zM1024 154v147l487 576h197v-531h170v-192h-170v-154h-221v154h-463zM1255 328l119 18h113v166l10 111h-10l-47 -99l-105 -129z" />
<glyph unicode="&#xbf;" horiz-adv-x="1005" d="M51 -88q0 185 105 295q45 47 98 81t98 72q107 92 107 234h246q28 -259 -162 -404q-49 -38 -93 -72t-74 -71t-30 -99.5t44 -102.5t153 -40q106 0 236 63q38 19 67 40l110 -211q-200 -131 -460 -131q-209 0 -327 93t-118 253zM395 889q0 74 49.5 117t130 43t130 -43 t49.5 -117t-49.5 -119t-130.5 -45t-130 45t-49 119z" />
<glyph unicode="&#xc0;" horiz-adv-x="1347" d="M0 0l561 1444h223l564 -1444h-322l-123 305h-483l-117 -305h-303zM262 1718v64h354l232 -242h-234zM504 545h327l-110 299l-49 227h-10l-50 -229z" />
<glyph unicode="&#xc1;" horiz-adv-x="1347" d="M0 0l561 1444h223l564 -1444h-322l-123 305h-483l-117 -305h-303zM504 545h327l-110 299l-49 227h-10l-50 -229zM506 1540l233 242h353v-64l-357 -178h-229z" />
<glyph unicode="&#xc2;" horiz-adv-x="1347" d="M0 0l561 1444h223l564 -1444h-322l-123 305h-483l-117 -305h-303zM275 1509v86l297 187h215l283 -189v-84h-222l-127 82l-45 70l-49 -68l-135 -84h-217zM504 545h327l-110 299l-49 227h-10l-50 -229z" />
<glyph unicode="&#xc3;" horiz-adv-x="1347" d="M0 0l561 1444h223l564 -1444h-322l-123 305h-483l-117 -305h-303zM256 1647q118 125 260 125q73 0 157 -26q154 -48 222.5 -48t120.5 49l51 -148q-105 -94 -229 -94q-70 0 -154 25.5t-128 37t-87 11.5q-94 0 -166 -72zM504 545h327l-110 299l-49 227h-10l-50 -229z" />
<glyph unicode="&#xc4;" horiz-adv-x="1347" d="M0 0l561 1444h223l564 -1444h-322l-123 305h-483l-117 -305h-303zM268 1634q0 55 40 89t128 34t128 -33.5t40 -87.5q0 -118 -168 -118t-168 116zM504 545h327l-110 299l-49 227h-10l-50 -229zM745 1635q0 54 40 88t128 34t128 -33.5t40 -89.5q0 -116 -170 -116 q-86 0 -126 31.5t-40 85.5z" />
<glyph unicode="&#xc5;" horiz-adv-x="1347" d="M0 0l549 1411q-158 32 -158 170q0 184 283 184q158 0 221 -49t63 -121.5t-34.5 -117.5t-126.5 -66l551 -1411h-322l-123 305h-483l-117 -305h-303zM504 545h327l-110 299l-49 227h-10l-50 -229zM575 1581q0 -61 99 -61q57 0 78.5 15t21.5 46q0 66 -99.5 66t-99.5 -66z " />
<glyph unicode="&#xc6;" horiz-adv-x="1914" d="M-66 0l945 1434h933v-267h-620v-311h565v-266h-565v-324h631v-266h-934v338h-414l-217 -338h-324zM616 584h273v501h-15l-79 -217z" />
<glyph unicode="&#xc7;" horiz-adv-x="1243" d="M82 729q0 197 65.5 339t168 229t227.5 126t251 39q228 0 369 -55l-59 -254q-95 43 -293 43q-289 0 -378 -268q-30 -90 -30 -203.5t27 -202t80 -152.5q111 -132 326 -132q171 0 290 65l60 -242q-98 -70 -318 -86l-49 -81q211 -13 211 -158q0 -93 -96 -146 q-91 -49 -234 -49q-93 0 -149 13l20 96q111 -7 148 8.5t44 29t7 29.5q0 68 -199 76l119 184q-420 41 -559 421q-49 134 -49 331z" />
<glyph unicode="&#xc8;" horiz-adv-x="1159" d="M133 0v1434h924v-267h-621v-311h563v-266h-563v-324h631v-266h-934zM199 1718v64h354l232 -242h-234z" />
<glyph unicode="&#xc9;" horiz-adv-x="1159" d="M133 0v1434h924v-267h-621v-311h563v-266h-563v-324h631v-266h-934zM420 1540l233 242h353v-64l-357 -178h-229z" />
<glyph unicode="&#xca;" horiz-adv-x="1159" d="M133 0v1434h924v-267h-621v-311h563v-266h-563v-324h631v-266h-934zM191 1509v86l297 187h215l283 -189v-84h-222l-127 82l-45 70l-49 -68l-135 -84h-217z" />
<glyph unicode="&#xcb;" horiz-adv-x="1159" d="M133 0v1434h924v-267h-621v-311h563v-266h-563v-324h631v-266h-934zM186 1634q0 55 40 89t128 34t128 -33.5t40 -87.5q0 -118 -168 -118t-168 116zM663 1635q0 54 40 88t128 34t128 -33.5t40 -89.5q0 -116 -170 -116q-86 0 -126 31.5t-40 85.5z" />
<glyph unicode="&#xcc;" horiz-adv-x="794" d="M27 1718v64h354l232 -242h-234zM82 0v164h164v1106h-164v164h631v-164h-164v-1106h164v-164h-631z" />
<glyph unicode="&#xcd;" horiz-adv-x="794" d="M82 0v164h164v1106h-164v164h631v-164h-164v-1106h164v-164h-631zM195 1540l233 242h353v-64l-357 -178h-229z" />
<glyph unicode="&#xce;" horiz-adv-x="794" d="M2 1509v86l297 187h215l283 -189v-84h-222l-127 82l-45 70l-49 -68l-135 -84h-217zM82 0v164h164v1106h-164v164h631v-164h-164v-1106h164v-164h-631z" />
<glyph unicode="&#xcf;" horiz-adv-x="794" d="M-6 1634q0 55 40 89t128 34t128 -33.5t40 -87.5q0 -118 -168 -118t-168 116zM82 0v164h164v1106h-164v164h631v-164h-164v-1106h164v-164h-631zM471 1635q0 54 40 88t128 34t128 -33.5t40 -89.5q0 -116 -170 -116q-86 0 -126 31.5t-40 85.5z" />
<glyph unicode="&#xd0;" horiz-adv-x="1462" d="M-14 604v240h172v590q150 20 403.5 20t400 -54t239.5 -150q179 -186 179 -521q0 -320 -178 -519q-207 -233 -618 -233q-78 0 -238 8.5t-188 12.5v606h-172zM461 252q40 -8 162 -8t208.5 41t136.5 109q91 122 91 331q0 304 -215 419q-82 44 -213 44t-170 -6v-338h276v-240 h-276v-352z" />
<glyph unicode="&#xd1;" horiz-adv-x="1460" d="M133 0v1444h219l592 -764l117 -209h12l-33 211v752h287v-1444h-219l-588 758l-123 215h-10l33 -218v-745h-287zM307 1647q118 125 260 125q73 0 157 -26q154 -48 222.5 -48t120.5 49l51 -148q-105 -94 -229 -94q-70 0 -154 25.5t-128 37t-87 11.5q-94 0 -166 -72z" />
<glyph unicode="&#xd2;" horiz-adv-x="1488" d="M82 722q0 171 45 310t130 234q174 196 486 196q323 0 497 -206q167 -199 167 -539q0 -353 -178 -550q-177 -196 -486 -196q-321 0 -496 207q-165 195 -165 544zM328 1718v64h354l232 -242h-234zM403 717q0 -344 187 -445q65 -34 153 -34q162 0 252 110.5t90 368.5 q0 340 -185 443q-64 36 -157 36q-160 0 -250 -114.5t-90 -364.5z" />
<glyph unicode="&#xd3;" horiz-adv-x="1488" d="M82 722q0 171 45 310t130 234q174 196 486 196q323 0 497 -206q167 -199 167 -539q0 -353 -178 -550q-177 -196 -486 -196q-321 0 -496 207q-165 195 -165 544zM403 717q0 -344 187 -445q65 -34 153 -34q162 0 252 110.5t90 368.5q0 340 -185 443q-64 36 -157 36 q-160 0 -250 -114.5t-90 -364.5zM578 1540l233 242h353v-64l-357 -178h-229z" />
<glyph unicode="&#xd4;" horiz-adv-x="1488" d="M82 722q0 171 45 310t130 234q174 196 486 196q323 0 497 -206q167 -199 167 -539q0 -353 -178 -550q-177 -196 -486 -196q-321 0 -496 207q-165 195 -165 544zM346 1509v86l297 187h215l283 -189v-84h-222l-127 82l-45 70l-49 -68l-135 -84h-217zM403 717 q0 -344 187 -445q65 -34 153 -34q162 0 252 110.5t90 368.5q0 340 -185 443q-64 36 -157 36q-160 0 -250 -114.5t-90 -364.5z" />
<glyph unicode="&#xd5;" horiz-adv-x="1488" d="M82 722q0 171 45 310t130 234q174 196 486 196q323 0 497 -206q167 -199 167 -539q0 -353 -178 -550q-177 -196 -486 -196q-321 0 -496 207q-165 195 -165 544zM338 1647q118 125 260 125q73 0 157 -26q154 -48 222.5 -48t120.5 49l51 -148q-105 -94 -229 -94 q-70 0 -154 25.5t-128 37t-87 11.5q-94 0 -166 -72zM403 717q0 -344 187 -445q65 -34 153 -34q162 0 252 110.5t90 368.5q0 340 -185 443q-64 36 -157 36q-160 0 -250 -114.5t-90 -364.5z" />
<glyph unicode="&#xd6;" horiz-adv-x="1488" d="M82 722q0 171 45 310t130 234q174 196 486 196q323 0 497 -206q167 -199 167 -539q0 -353 -178 -550q-177 -196 -486 -196q-321 0 -496 207q-165 195 -165 544zM338 1634q0 55 40 89t128 34t128 -33.5t40 -87.5q0 -118 -168 -118t-168 116zM403 717q0 -344 187 -445 q65 -34 153 -34q162 0 252 110.5t90 368.5q0 340 -185 443q-64 36 -157 36q-160 0 -250 -114.5t-90 -364.5zM815 1635q0 54 40 88t128 34t128 -33.5t40 -89.5q0 -116 -170 -116q-86 0 -126 31.5t-40 85.5z" />
<glyph unicode="&#xd7;" horiz-adv-x="1169" d="M127 428l281 266l-279 258l168 183l289 -275l286 275l170 -183l-278 -258l278 -264l-170 -180l-286 274l-291 -276z" />
<glyph unicode="&#xd8;" horiz-adv-x="1488" d="M82 717q0 353 175 549q174 196 486 196q190 0 332 -76l53 78l195 -125l-70 -100q154 -193 154 -522q0 -353 -178 -550q-177 -196 -486 -196q-179 0 -319 68l-45 -68l-191 123l58 84q-164 191 -164 539zM403 717q0 -150 37 -256l473 690q-72 45 -170 45 q-160 0 -250 -114.5t-90 -364.5zM588 274q63 -37 155 -36q162 0 252 110.5t90 368.5q0 131 -30 233z" />
<glyph unicode="&#xd9;" horiz-adv-x="1390" d="M125 479v955h303v-899q0 -164 71.5 -228.5t210 -64.5t204 68.5t65.5 224.5v899h287v-920q0 -272 -153 -410q-144 -129 -414.5 -129t-422 126t-151.5 378zM291 1718v64h354l232 -242h-234z" />
<glyph unicode="&#xda;" horiz-adv-x="1390" d="M125 479v955h303v-899q0 -164 71.5 -228.5t210 -64.5t204 68.5t65.5 224.5v899h287v-920q0 -272 -153 -410q-144 -129 -414.5 -129t-422 126t-151.5 378zM578 1540l233 242h353v-64l-357 -178h-229z" />
<glyph unicode="&#xdb;" horiz-adv-x="1390" d="M125 479v955h303v-899q0 -164 71.5 -228.5t210 -64.5t204 68.5t65.5 224.5v899h287v-920q0 -272 -153 -410q-144 -129 -414.5 -129t-422 126t-151.5 378zM311 1509v86l297 187h215l283 -189v-84h-222l-127 82l-45 70l-49 -68l-135 -84h-217z" />
<glyph unicode="&#xdc;" horiz-adv-x="1390" d="M125 479v955h303v-899q0 -164 71.5 -228.5t210 -64.5t204 68.5t65.5 224.5v899h287v-920q0 -272 -153 -410q-144 -129 -414.5 -129t-422 126t-151.5 378zM295 1634q0 55 40 89t128 34t128 -33.5t40 -87.5q0 -118 -168 -118t-168 116zM772 1635q0 54 40 88t128 34 t128 -33.5t40 -89.5q0 -116 -170 -116q-86 0 -126 31.5t-40 85.5z" />
<glyph unicode="&#xdd;" horiz-adv-x="1318" d="M-4 1434h360l287 -527l33 -153h10l35 157l276 523h326l-512 -904v-530h-303v528zM492 1540l233 242h353v-64l-357 -178h-229z" />
<glyph unicode="&#xde;" horiz-adv-x="1269" d="M133 0v1434h303v-148q62 4 165 4t222 -17.5t207 -69.5q187 -111 187 -392q0 -259 -175 -385q-158 -115 -430 -115h-67q-57 0 -109 8v-319h-303zM436 588q40 -10 121.5 -10t142 8t103.5 34q92 57 92 197q0 122 -83 169q-68 38 -201 38t-175 -10v-426z" />
<glyph unicode="&#xdf;" horiz-adv-x="1419" d="M35 836v239h162q0 199 132 284t371 85q449 0 449 -293q0 -92 -34 -142.5t-76 -85t-75.5 -67.5t-33.5 -81t31.5 -71.5t78.5 -44t101.5 -43t101.5 -58.5q111 -85 111 -228q0 -241 -209 -329q-76 -32 -188 -32q-212 0 -365 94l84 203q27 -14 52.5 -27.5t55.5 -22.5 q68 -21 143 -21q140 0 140 116q0 51 -31.5 80t-79 49.5t-101.5 38t-101 47.5q-111 69 -111 207q0 88 34 143.5t75 94.5t74.5 71.5t33.5 65t-6 51.5t-26 32q-45 28 -153 28t-150 -69t-42 -177v-973h-286v836h-162z" />
<glyph unicode="&#xe0;" horiz-adv-x="1185" d="M61 295q0 369 492 369q63 0 195 -23q6 43 6 74q0 78 -39 114.5t-146 36.5q-187 0 -356 -82l-76 217q92 41 226.5 68t262.5 27t204.5 -27t121.5 -77q84 -93 84 -277q0 -104 -8 -206.5t-8 -243t43 -267.5h-234l-47 160h-24q-128 -174 -346 -174q-158 0 -253 87 q-98 89 -98 224zM278 1432v61h301l138 -324h-152zM356 360q0 -147 168 -147q84 0 141.5 45t84.5 94v123q-62 25 -175 25t-166 -40t-53 -100z" />
<glyph unicode="&#xe1;" horiz-adv-x="1185" d="M61 295q0 369 492 369q63 0 195 -23q6 43 6 74q0 78 -39 114.5t-146 36.5q-187 0 -356 -82l-76 217q92 41 226.5 68t262.5 27t204.5 -27t121.5 -77q84 -93 84 -277q0 -104 -8 -206.5t-8 -243t43 -267.5h-234l-47 160h-24q-128 -174 -346 -174q-158 0 -253 87 q-98 89 -98 224zM356 360q0 -147 168 -147q84 0 141.5 45t84.5 94v123q-62 25 -175 25t-166 -40t-53 -100zM465 1169l123 324h290v-59l-258 -265h-155z" />
<glyph unicode="&#xe2;" horiz-adv-x="1185" d="M61 295q0 369 492 369q63 0 195 -23q6 43 6 74q0 78 -39 114.5t-146 36.5q-187 0 -356 -82l-76 217q92 41 226.5 68t262.5 27t204.5 -27t121.5 -77q84 -93 84 -277q0 -104 -8 -206.5t-8 -243t43 -267.5h-234l-47 160h-24q-128 -174 -346 -174q-158 0 -253 87 q-98 89 -98 224zM233 1155l283 385h188l256 -385h-225l-86 141l-49 131l-51 -129l-107 -143h-209zM356 360q0 -147 168 -147q84 0 141.5 45t84.5 94v123q-62 25 -175 25t-166 -40t-53 -100z" />
<glyph unicode="&#xe3;" horiz-adv-x="1185" d="M61 295q0 369 492 369q63 0 195 -23q6 43 6 74q0 78 -39 114.5t-146 36.5q-187 0 -356 -82l-76 217q92 41 226.5 68t262.5 27t204.5 -27t121.5 -77q84 -93 84 -277q0 -104 -8 -206.5t-8 -243t43 -267.5h-234l-47 160h-24q-128 -174 -346 -174q-158 0 -253 87 q-98 89 -98 224zM219 1386q122 140 238 140q65 0 138 -33t115 -47t99.5 -14t128.5 53l35 -154q-110 -123 -223 -123q-47 0 -89 15.5t-85 33t-87.5 33t-106.5 15.5t-132 -56zM356 360q0 -147 168 -147q84 0 141.5 45t84.5 94v123q-62 25 -175 25t-166 -40t-53 -100z" />
<glyph unicode="&#xe4;" horiz-adv-x="1185" d="M61 295q0 369 492 369q63 0 195 -23q6 43 6 74q0 78 -39 114.5t-146 36.5q-187 0 -356 -82l-76 217q92 41 226.5 68t262.5 27t204.5 -27t121.5 -77q84 -93 84 -277q0 -104 -8 -206.5t-8 -243t43 -267.5h-234l-47 160h-24q-128 -174 -346 -174q-158 0 -253 87 q-98 89 -98 224zM164 1351.5q0 66.5 44 109t114 42.5t112 -43t42 -109t-42 -109.5t-112 -43.5t-114 43.5t-44 110zM356 360q0 -147 168 -147q84 0 141.5 45t84.5 94v123q-62 25 -175 25t-166 -40t-53 -100zM682 1351.5q0 66.5 42 109t113 42.5t113 -43t42 -109t-42 -109.5 t-113 -43.5t-113 43.5t-42 110z" />
<glyph unicode="&#xe5;" horiz-adv-x="1185" d="M61 295q0 369 492 369q63 0 195 -23q6 43 6 74q0 78 -39 114.5t-146 36.5q-187 0 -356 -82l-76 217q92 41 226.5 68t262.5 27t204.5 -27t121.5 -77q84 -93 84 -277q0 -104 -8 -206.5t-8 -243t43 -267.5h-234l-47 160h-24q-128 -174 -346 -174q-158 0 -253 87 q-98 89 -98 224zM354 1361q0 87 62.5 145.5t182.5 58.5t186.5 -52.5t66.5 -150.5q0 -80 -67 -138q-69 -61 -185.5 -61t-181 55.5t-64.5 142.5zM356 360q0 -147 168 -147q84 0 141.5 45t84.5 94v123q-62 25 -175 25t-166 -40t-53 -100zM502 1365q0 -38 29.5 -56.5t70.5 -18.5 q105 0 105 72q0 39 -32 58.5t-73 19.5t-70.5 -18.5t-29.5 -56.5z" />
<glyph unicode="&#xe6;" horiz-adv-x="1873" d="M61 295q0 182 127 274.5t361 92.5q99 0 199 -21q6 43 6 72q0 151 -187.5 151t-353.5 -76l-76 201q214 107 486 107q121 0 193.5 -29t125.5 -90q59 61 153.5 95t192.5 34t182 -21.5t148 -71.5q145 -112 145 -347q0 -107 -20 -199h-719q10 -135 83 -203.5t230 -68.5 q94 0 172 27.5t121 56.5l94 -183q-108 -83 -312 -116q-64 -11 -132 -11q-329 0 -438 201h-11q-145 -186 -419 -186q-158 0 -253 87q-98 89 -98 224zM356 347.5q0 -66.5 43 -100.5t126 -34t139.5 43t85.5 90v129q-23 6 -57 14.5t-127 8.5t-151.5 -42t-58.5 -108.5zM1036 637 h461q21 242 -201 242q-129 0 -189 -69t-71 -173z" />
<glyph unicode="&#xe7;" horiz-adv-x="1024" d="M86 547.5q0 257.5 132 408t384 150.5q204 0 342 -70l-70 -229q-104 45 -227 45q-266 0 -266 -315q0 -218 155 -289q54 -25 133 -25q127 0 224 58l65 -215q-101 -67 -274 -91l-49 -81q211 -13 211 -158q0 -93 -96 -146q-91 -49 -234 -49q-93 0 -149 13l20 96 q110 -7 147 8.5t44.5 29t7.5 29.5q0 68 -199 76l117 182q-216 23 -323 177q-95 138 -95 395.5z" />
<glyph unicode="&#xe8;" horiz-adv-x="1216" d="M86 545q0 273 145.5 417t409.5 144q318 0 425 -228q40 -85 40 -199.5t-23 -211.5h-716q10 -139 80.5 -205.5t230.5 -66.5q96 0 173 27.5t118 56.5l98 -181q-70 -53 -189.5 -91t-256.5 -38q-276 0 -405.5 151.5t-129.5 424.5zM321 1432v61h301l138 -324h-152zM377 637h463 q17 244 -210 244q-120 0 -181.5 -69t-71.5 -175z" />
<glyph unicode="&#xe9;" horiz-adv-x="1216" d="M86 545q0 273 145.5 417t409.5 144q318 0 425 -228q40 -85 40 -199.5t-23 -211.5h-716q10 -139 80.5 -205.5t230.5 -66.5q96 0 173 27.5t118 56.5l98 -181q-70 -53 -189.5 -91t-256.5 -38q-276 0 -405.5 151.5t-129.5 424.5zM377 637h463q17 244 -210 244 q-120 0 -181.5 -69t-71.5 -175zM549 1169l123 324h290v-59l-258 -265h-155z" />
<glyph unicode="&#xea;" horiz-adv-x="1216" d="M86 545q0 273 145.5 417t409.5 144q318 0 425 -228q40 -85 40 -199.5t-23 -211.5h-716q10 -139 80.5 -205.5t230.5 -66.5q96 0 173 27.5t118 56.5l98 -181q-70 -53 -189.5 -91t-256.5 -38q-276 0 -405.5 151.5t-129.5 424.5zM241 1155l283 385h188l256 -385h-225l-86 141 l-49 131l-51 -129l-107 -143h-209zM377 637h463q17 244 -210 244q-120 0 -181.5 -69t-71.5 -175z" />
<glyph unicode="&#xeb;" horiz-adv-x="1216" d="M86 545q0 273 145.5 417t409.5 144q318 0 425 -228q40 -85 40 -199.5t-23 -211.5h-716q10 -139 80.5 -205.5t230.5 -66.5q96 0 173 27.5t118 56.5l98 -181q-70 -53 -189.5 -91t-256.5 -38q-276 0 -405.5 151.5t-129.5 424.5zM192 1351.5q0 66.5 44 109t114 42.5t112 -43 t42 -109t-42 -109.5t-112 -43.5t-114 43.5t-44 110zM377 637h463q17 244 -210 244q-120 0 -181.5 -69t-71.5 -175zM710 1351.5q0 66.5 42 109t113 42.5t113 -43t42 -109t-42 -109.5t-113 -43.5t-113 43.5t-42 110z" />
<glyph unicode="&#xec;" horiz-adv-x="649" d="M-15 1432v61h301l138 -324h-152zM182 0v1075h287v-1075h-287z" />
<glyph unicode="&#xed;" horiz-adv-x="649" d="M172 1169l123 324h290v-59l-258 -265h-155zM182 0v1075h287v-1075h-287z" />
<glyph unicode="&#xee;" horiz-adv-x="649" d="M-37 1155l283 385h188l256 -385h-225l-86 141l-49 131l-51 -129l-107 -143h-209zM182 0v1075h287v-1075h-287z" />
<glyph unicode="&#xef;" horiz-adv-x="649" d="M-88 1351.5q0 66.5 44 109t114 42.5t112 -43t42 -109t-42 -109.5t-112 -43.5t-114 43.5t-44 110zM182 0v1075h287v-1075h-287zM430 1351.5q0 66.5 42 109t113 42.5t113 -43t42 -109t-42 -109.5t-113 -43.5t-113 43.5t-42 110z" />
<glyph unicode="&#xf0;" horiz-adv-x="1316" d="M86 506q0 237 152 382q151 142 395 142q172 0 295 -96q-65 183 -246 278l-104 -135l-115 84l82 105q-72 18 -183 28l111 168q102 -12 197 -37l71 93l109 -88l-43 -58q215 -104 325 -307q99 -180 99 -373.5t-43 -323.5t-120 -218q-157 -181 -421 -181q-268 0 -419 151 q-142 142 -142 386zM362 491q0 -136 82 -209t220 -73q131 0 214 102t83 268q0 81 -15 132q-107 80 -266 80t-238.5 -82t-79.5 -218z" />
<glyph unicode="&#xf1;" horiz-adv-x="1306" d="M147 0v1075h226l30 -153h31q128 184 371 184q183 0 263 -96q91 -108 91 -361v-649h-287v590q0 139 -43 200.5t-143 61.5t-164.5 -50t-89.5 -128l2 -674h-287zM274 1386q122 140 238 140q65 0 138 -33t115 -47t99.5 -14t128.5 53l35 -154q-110 -123 -223 -123 q-47 0 -89 15.5t-85 33t-87.5 33t-106.5 15.5t-132 -56z" />
<glyph unicode="&#xf2;" horiz-adv-x="1261" d="M86 543.5q0 259.5 141.5 411t403.5 151.5q267 0 409 -163q136 -155 136 -406q0 -263 -144 -416q-142 -152 -401 -152q-269 0 -411 163q-134 152 -134 411.5zM329 1432v61h301l138 -324h-152zM381 537q0 -225 135 -301q47 -27 115 -27q250 0 250 328q0 237 -135 305 q-48 24 -115 24q-117 0 -183.5 -77.5t-66.5 -251.5z" />
<glyph unicode="&#xf3;" horiz-adv-x="1261" d="M86 543.5q0 259.5 141.5 411t403.5 151.5q267 0 409 -163q136 -155 136 -406q0 -263 -144 -416q-142 -152 -401 -152q-269 0 -411 163q-134 152 -134 411.5zM381 537q0 -225 135 -301q47 -27 115 -27q250 0 250 328q0 237 -135 305q-48 24 -115 24q-117 0 -183.5 -77.5 t-66.5 -251.5zM551 1169l123 324h290v-59l-258 -265h-155z" />
<glyph unicode="&#xf4;" horiz-adv-x="1261" d="M86 543.5q0 259.5 141.5 411t403.5 151.5q267 0 409 -163q136 -155 136 -406q0 -263 -144 -416q-142 -152 -401 -152q-269 0 -411 163q-134 152 -134 411.5zM268 1155l283 385h188l256 -385h-225l-86 141l-49 131l-51 -129l-107 -143h-209zM381 537q0 -225 135 -301 q47 -27 115 -27q250 0 250 328q0 237 -135 305q-48 24 -115 24q-117 0 -183.5 -77.5t-66.5 -251.5z" />
<glyph unicode="&#xf5;" horiz-adv-x="1261" d="M86 543.5q0 259.5 141.5 411t403.5 151.5q267 0 409 -163q136 -155 136 -406q0 -263 -144 -416q-142 -152 -401 -152q-269 0 -411 163q-134 152 -134 411.5zM254 1386q122 140 238 140q65 0 138 -33t115 -47t99.5 -14t128.5 53l35 -154q-110 -123 -223 -123 q-47 0 -89 15.5t-85 33t-87.5 33t-106.5 15.5t-132 -56zM381 537q0 -225 135 -301q47 -27 115 -27q250 0 250 328q0 237 -135 305q-48 24 -115 24q-117 0 -183.5 -77.5t-66.5 -251.5z" />
<glyph unicode="&#xf6;" horiz-adv-x="1261" d="M86 543.5q0 259.5 141.5 411t403.5 151.5q267 0 409 -163q136 -155 136 -406q0 -263 -144 -416q-142 -152 -401 -152q-269 0 -411 163q-134 152 -134 411.5zM217 1351.5q0 66.5 44 109t114 42.5t112 -43t42 -109t-42 -109.5t-112 -43.5t-114 43.5t-44 110zM381 537 q0 -225 135 -301q47 -27 115 -27q250 0 250 328q0 237 -135 305q-48 24 -115 24q-117 0 -183.5 -77.5t-66.5 -251.5zM735 1351.5q0 66.5 42 109t113 42.5t113 -43t42 -109t-42 -109.5t-113 -43.5t-113 43.5t-42 110z" />
<glyph unicode="&#xf7;" horiz-adv-x="1169" d="M96 567v246h977v-246h-977zM406 281q0 74 49 116.5t130 42.5t130 -43t49 -116.5t-49 -118.5t-130 -45t-130 45t-49 119zM406 1104q0 74 49 117t130 43t130 -43t49 -117t-49 -119t-130 -45t-130 45t-49 119z" />
<glyph unicode="&#xf8;" horiz-adv-x="1263" d="M86 537q0 264 144 415q145 154 401 154q140 0 258 -49l59 76l172 -138l-61 -71q119 -153 119 -387q0 -263 -144 -416q-142 -152 -403 -152q-160 0 -275 58l-59 -76l-178 137l69 82q-102 139 -102 367zM381 537q0 -80 22 -152l355 449q-55 33 -127 32q-115 0 -182.5 -78.5 t-67.5 -250.5zM498 246q51 -37 133 -37q252 0 252 328q0 83 -29 168z" />
<glyph unicode="&#xf9;" horiz-adv-x="1314" d="M147 418v657h287v-596q0 -133 37 -194.5t134 -61.5t158.5 47t90.5 119v686h287v-747q0 -184 35 -328h-211l-56 168h-22q-53 -86 -151.5 -142.5t-206 -56.5t-175 22.5t-113.5 74.5q-94 108 -94 352zM315 1432v61h301l138 -324h-152z" />
<glyph unicode="&#xfa;" horiz-adv-x="1314" d="M147 418v657h287v-596q0 -133 37 -194.5t134 -61.5t158.5 47t90.5 119v686h287v-747q0 -184 35 -328h-211l-56 168h-22q-53 -86 -151.5 -142.5t-206 -56.5t-175 22.5t-113.5 74.5q-94 108 -94 352zM535 1169l123 324h290v-59l-258 -265h-155z" />
<glyph unicode="&#xfb;" horiz-adv-x="1314" d="M147 418v657h287v-596q0 -133 37 -194.5t134 -61.5t158.5 47t90.5 119v686h287v-747q0 -184 35 -328h-211l-56 168h-22q-53 -86 -151.5 -142.5t-206 -56.5t-175 22.5t-113.5 74.5q-94 108 -94 352zM286 1155l283 385h188l256 -385h-225l-86 141l-49 131l-51 -129 l-107 -143h-209z" />
<glyph unicode="&#xfc;" horiz-adv-x="1314" d="M147 418v657h287v-596q0 -133 37 -194.5t134 -61.5t158.5 47t90.5 119v686h287v-747q0 -184 35 -328h-211l-56 168h-22q-53 -86 -151.5 -142.5t-206 -56.5t-175 22.5t-113.5 74.5q-94 108 -94 352zM233 1351.5q0 66.5 44 109t114 42.5t112 -43t42 -109t-42 -109.5 t-112 -43.5t-114 43.5t-44 110zM751 1351.5q0 66.5 42 109t113 42.5t113 -43t42 -109t-42 -109.5t-113 -43.5t-113 43.5t-42 110z" />
<glyph unicode="&#xfd;" horiz-adv-x="1107" d="M-25 1075h347l219 -596l45 -172h20l39 172l182 596h293l-356 -973q-45 -121 -85 -217t-87 -163q-97 -140 -244 -140q-112 0 -184 37l59 221q31 -10 62 -10t57.5 6t49.5 24q50 39 75 134zM492 1169l123 324h290v-59l-258 -265h-155z" />
<glyph unicode="&#xfe;" horiz-adv-x="1275" d="M147 -410v1844h287v-457h25q51 55 118.5 92t178.5 37q217 0 325.5 -128t108.5 -413q0 -277 -136 -435q-140 -161 -387 -161q-121 0 -233 49v-428h-287zM434 272q71 -63 199 -63q262 0 262 364q0 137 -52 215t-175 78q-176 0 -234 -182v-412z" />
<glyph unicode="&#xff;" horiz-adv-x="1107" d="M-25 1075h347l219 -596l45 -172h20l39 172l182 596h293l-356 -973q-45 -121 -85 -217t-87 -163q-97 -140 -244 -140q-112 0 -184 37l59 221q31 -10 62 -10t57.5 6t49.5 24q50 39 75 134zM155 1351.5q0 66.5 44 109t114 42.5t112 -43t42 -109t-42 -109.5t-112 -43.5 t-114 43.5t-44 110zM673 1351.5q0 66.5 42 109t113 42.5t113 -43t42 -109t-42 -109.5t-113 -43.5t-113 43.5t-42 110z" />
<glyph unicode="&#x152;" horiz-adv-x="2033" d="M82 717q0 353 175 549q85 96 209 146t267 50t275 -28h923v-267h-620v-311h563v-266h-563v-324h631v-266h-934q-97 -29 -262.5 -29t-290.5 54.5t-208 152.5q-165 195 -165 539zM403 717q0 -347 193 -445q68 -34 190 -34t222 41v864q-108 53 -267.5 53t-248.5 -115.5 t-89 -363.5z" />
<glyph unicode="&#x153;" horiz-adv-x="2002" d="M86 542.5q0 264.5 141.5 414t392 149.5t414.5 -158q143 158 396 158q315 0 422 -228q40 -85 40 -197.5t-22 -213.5h-713q8 -135 81 -202.5t232 -67.5q90 0 167 25.5t120 51.5l96 -178q-70 -51 -187.5 -89t-252.5 -38q-256 0 -391 160h-16q-130 -160 -371 -160 q-271 0 -415 161q-134 148 -134 412.5zM381 537q0 -229 135 -303q47 -25 115 -25q250 0 250 328q0 237 -135 305q-48 24 -115 24q-117 0 -183.5 -77.5t-66.5 -251.5zM1165 637h463q17 242 -213 242q-119 0 -179 -64.5t-71 -177.5z" />
<glyph unicode="&#x178;" horiz-adv-x="1318" d="M-4 1434h360l287 -527l33 -153h10l35 157l276 523h326l-512 -904v-530h-303v528zM258 1634q0 55 40 89t128 34t128 -33.5t40 -87.5q0 -118 -168 -118t-168 116zM735 1635q0 54 40 88t128 34t128 -33.5t40 -89.5q0 -116 -170 -116q-86 0 -126 31.5t-40 85.5z" />
<glyph unicode="&#x2c6;" horiz-adv-x="1005" d="M143 1155l283 385h188l256 -385h-225l-86 141l-49 131l-51 -129l-107 -143h-209z" />
<glyph unicode="&#x2dc;" horiz-adv-x="1021" d="M137 1386q122 140 238 140q65 0 138 -33t115 -47t99.5 -14t128.5 53l35 -154q-110 -123 -223 -123q-47 0 -89 15.5t-85 33t-87.5 33t-106.5 15.5t-132 -56z" />
<glyph unicode="&#x2000;" horiz-adv-x="891" />
<glyph unicode="&#x2001;" horiz-adv-x="1782" />
<glyph unicode="&#x2002;" horiz-adv-x="891" />
<glyph unicode="&#x2003;" horiz-adv-x="1782" />
<glyph unicode="&#x2004;" horiz-adv-x="594" />
<glyph unicode="&#x2005;" horiz-adv-x="445" />
<glyph unicode="&#x2006;" horiz-adv-x="297" />
<glyph unicode="&#x2007;" horiz-adv-x="297" />
<glyph unicode="&#x2008;" horiz-adv-x="222" />
<glyph unicode="&#x2009;" horiz-adv-x="356" />
<glyph unicode="&#x200a;" horiz-adv-x="99" />
<glyph unicode="&#x2010;" horiz-adv-x="800" d="M121 463v254h559v-254h-559z" />
<glyph unicode="&#x2011;" horiz-adv-x="800" d="M121 463v254h559v-254h-559z" />
<glyph unicode="&#x2012;" horiz-adv-x="800" d="M121 463v254h559v-254h-559z" />
<glyph unicode="&#x2013;" horiz-adv-x="1470" d="M244 461v258h983v-258h-983z" />
<glyph unicode="&#x2014;" horiz-adv-x="1824" d="M242 461v258h1341v-258h-1341z" />
<glyph unicode="&#x2018;" horiz-adv-x="497" d="M86 1313q0 84 27.5 142t66.5 96q59 58 156 89l67 -116q-45 -16 -74.5 -50t-33.5 -75q43 2 81 -35t38 -98t-44 -98.5t-117 -37.5t-120 49.5t-47 133.5z" />
<glyph unicode="&#x2019;" horiz-adv-x="499" d="M86 1311.5q0 64.5 43 102.5t117 38t121 -51t47 -134t-28 -141.5t-68 -97.5q-68 -68 -154 -90l-72 121q108 38 115 123q-43 -4 -82 30.5t-39 99z" />
<glyph unicode="&#x201a;" horiz-adv-x="499" d="M86 123.5q0 64.5 43 102.5t117 38t121 -51t47 -134t-28 -141.5t-68 -97.5q-68 -68 -154 -90l-72 121q108 38 115 123q-43 -4 -82 30.5t-39 99z" />
<glyph unicode="&#x201c;" horiz-adv-x="878" d="M86 1313q0 84 27.5 142t66.5 96q59 58 156 89l67 -116q-45 -16 -74.5 -50t-33.5 -75q43 2 81 -35t38 -98t-44 -98.5t-117 -37.5t-120 49.5t-47 133.5zM467 1313q0 84 27.5 142t66.5 96q59 58 156 89l67 -116q-45 -16 -74.5 -50t-33.5 -75q43 2 81 -35t38 -98t-44 -98.5 t-117 -37.5t-120 49.5t-47 133.5z" />
<glyph unicode="&#x201d;" horiz-adv-x="880" d="M86 1309.5q0 64.5 43 102.5t117 38t121 -51t47 -134t-28 -141.5t-68 -97.5q-68 -68 -154 -90l-72 121q108 38 115 123q-43 -4 -82 30.5t-39 99zM467 1309.5q0 64.5 43 102.5t116.5 38t121 -51t47.5 -134t-28 -141.5t-68 -97.5q-69 -67 -154 -90l-72 121q108 38 115 123 q-43 -4 -82 30.5t-39 99z" />
<glyph unicode="&#x201e;" horiz-adv-x="880" d="M86 123.5q0 64.5 43 102.5t117 38t121 -51t47 -134t-28 -141.5t-68 -97.5q-68 -68 -154 -90l-72 121q108 38 115 123q-43 -4 -82 30.5t-39 99zM467 123.5q0 64.5 43 102.5t116.5 38t121 -51t47.5 -134t-28 -141.5t-68 -97.5q-69 -67 -154 -90l-72 121q108 38 115 123 q-43 -4 -82 30.5t-39 99z" />
<glyph unicode="&#x2022;" horiz-adv-x="1007" d="M164 635q0 72 27.5 130t73.5 100q97 89 237 89q147 0 240 -85q102 -93 102 -232q0 -138 -102 -229q-94 -84 -240 -84q-143 0 -237 84q-101 90 -101 227z" />
<glyph unicode="&#x2026;" horiz-adv-x="1757" d="M115 141q0 74 49 117t130 43t130 -43t49 -117t-49 -119t-130 -45t-130 45t-49 119zM700 141q0 74 49.5 117t130.5 43t130 -43t49 -117t-49 -119t-130 -45t-130.5 45t-49.5 119zM1288 141q0 74 49 117t130 43t130.5 -43t49.5 -117t-49.5 -119t-130.5 -45t-130 45t-49 119z " />
<glyph unicode="&#x202f;" horiz-adv-x="356" />
<glyph unicode="&#x2039;" horiz-adv-x="681" d="M66 530l356 471l162 -145l-178 -240l-107 -84l107 -73l194 -234l-166 -147z" />
<glyph unicode="&#x203a;" horiz-adv-x="681" d="M82 856l166 145l370 -452l-356 -471l-166 143l183 242l106 84l-106 74z" />
<glyph unicode="&#x205f;" horiz-adv-x="445" />
<glyph unicode="&#x20ac;" d="M-23 469l70 193h111v88q0 16 2 30h-183l70 193h141q60 250 245 377q162 112 392 112q206 0 361 -57l-80 -225q-101 43 -247 43t-242.5 -59.5t-145.5 -190.5h571l-57 -193h-557q-2 -14 -2 -30v-88h514l-57 -193h-418q95 -258 399 -258q156 0 283 74l59 -222 q-94 -67 -282 -87q-54 -5 -139 -5t-188 30t-186 91q-174 127 -229 377h-205z" />
<glyph unicode="&#x2122;" horiz-adv-x="2105" d="M61 1194v240h811v-240h-262v-498h-286v498h-263zM952 696v738h289l203 -312l53 -129h2l57 133l187 308h287v-738h-250v291l35 211h-13l-80 -174l-151 -236h-172l-154 228l-86 182h-12l55 -209v-293h-250z" />
<glyph unicode="&#xe000;" horiz-adv-x="1075" d="M0 0v1075h1075v-1075h-1075z" />
</font>
</defs>
</svg>
