<svg xmlns="http://www.w3.org/2000/svg" xmlns:xlink="http://www.w3.org/1999/xlink" preserveAspectRatio="xMidYMid" width="132" height="23" viewBox="0 0 132 23">
  <defs>
    <style>

      .cls-2 {
        fill: #93a1a5;
      }
    </style>
  </defs>
  <path d="M130.763,22.542 C130.763,22.542 123.594,2.704 123.594,2.704 C123.535,2.541 123.304,2.541 123.245,2.704 C123.245,2.704 116.108,22.542 116.108,22.542 C116.108,22.542 114.870,22.542 114.870,22.542 C114.870,22.542 122.627,1.025 122.627,1.025 C122.890,0.345 123.952,0.358 124.205,1.014 C124.205,1.014 131.999,22.542 131.999,22.542 C131.999,22.542 130.763,22.542 130.763,22.542 ZM102.107,22.343 C102.107,22.343 97.218,13.205 97.218,13.205 C97.218,13.205 97.212,13.205 97.212,13.205 C97.212,13.205 96.635,12.127 96.635,12.127 C100.480,12.060 101.793,9.815 101.793,6.586 C101.793,2.930 100.133,1.354 96.466,1.354 C96.466,1.354 89.728,1.354 89.728,1.354 C89.728,1.354 89.728,11.105 89.728,11.105 C89.728,11.105 89.728,12.133 89.728,12.133 C89.728,12.133 89.728,13.205 89.728,13.205 C89.728,13.205 89.728,22.343 89.728,22.343 C89.728,22.343 88.599,22.343 88.599,22.343 C88.599,22.343 88.599,0.282 88.599,0.282 C88.599,0.282 96.466,0.282 96.466,0.282 C100.821,0.282 102.984,2.174 102.984,6.586 C102.984,9.990 101.700,12.417 98.440,13.046 C98.440,13.046 103.391,22.343 103.391,22.343 C103.391,22.343 102.107,22.343 102.107,22.343 ZM65.878,22.627 C59.109,22.627 57.480,18.719 57.480,11.408 C57.480,4.222 59.172,-0.001 65.878,-0.001 C72.584,-0.001 74.277,4.159 74.277,11.408 C74.277,19.035 72.616,22.627 65.878,22.627 ZM65.878,1.071 C59.924,1.071 58.670,4.821 58.670,11.408 C58.670,18.027 59.830,21.557 65.878,21.557 C71.926,21.557 73.086,18.342 73.086,11.408 C73.086,4.885 71.769,1.071 65.878,1.071 ZM36.888,22.627 C30.432,22.627 28.678,18.404 28.678,11.408 C28.678,4.537 30.213,-0.001 36.888,-0.001 C40.178,-0.001 43.782,0.787 43.782,0.787 C43.782,0.787 43.689,1.890 43.689,1.890 C43.689,1.890 39.740,1.071 36.888,1.071 C30.997,1.071 29.868,5.136 29.868,11.408 C29.868,17.711 31.122,21.557 36.888,21.557 C38.261,21.557 40.172,21.324 41.598,21.103 C42.207,21.009 42.654,20.485 42.654,19.866 C42.654,19.866 42.654,11.529 42.654,11.529 C42.654,11.529 43.782,11.408 43.782,11.408 C43.782,11.408 43.782,20.787 43.782,20.787 C43.782,21.403 43.336,21.926 42.730,22.023 C41.129,22.280 38.508,22.627 36.888,22.627 ZM8.755,2.704 C8.696,2.541 8.465,2.541 8.406,2.704 C8.406,2.704 1.237,22.542 1.237,22.542 C1.237,22.542 0.001,22.542 0.001,22.542 C0.001,22.542 7.795,1.014 7.795,1.014 C8.048,0.358 9.110,0.345 9.373,1.025 C9.373,1.025 17.130,22.542 17.130,22.542 C17.130,22.542 15.892,22.542 15.892,22.542 C15.892,22.542 8.755,2.704 8.755,2.704 Z" id="path-1" class="cls-2" fill-rule="evenodd"/>
</svg>